<svg xmlns="http://www.w3.org/2000/svg" viewBox="0 0 500 500">
  <style>
    .book { fill: #FFFFFF; }
    .book-accent { fill: #00BCD4; }
    .book-pages { fill: #FFFFFF; stroke: #333333; }
    .fork { fill: #00BCD4; }
    .bookmark { fill: #FF5722; }
    .accent { fill: #FF9800; }
  </style>
  <g transform="translate(100, 100) scale(0.6)">
    <!-- Book base -->
    <path class="book" d="M50 50 L400 50 L400 350 Q400 400, 350 400 L100 400 Q50 400, 50 350 Z"/>
    <!-- Book accent -->
    <path class="book-accent" d="M50 50 L100 50 L100 400 Q50 400, 50 350 Z"/>
    <!-- Book pages -->
    <g class="book-pages">
      <path d="M100 50 L350 50 L350 400 L100 400"/>
      <line x1="120" y1="100" x2="330" y2="100" stroke-width="2"/>
      <line x1="120" y1="150" x2="330" y2="150" stroke-width="2"/>
      <line x1="120" y1="200" x2="330" y2="200" stroke-width="2"/>
    </g>
    <!-- Fork -->
    <path class="fork" d="M200 0 L250 0 L270 200 L230 200 Z"/>
    <!-- Bookmark -->
    <path class="bookmark" d="M350 50 L380 50 L380 150 L365 130 L350 150 Z"/>
    <!-- Accent elements -->
    <path class="accent" d="M150 250 L200 250 L200 300 L150 300 Z"/>
    <path class="accent" d="M250 250 L300 250 L300 300 L250 300 Z"/>
  </g>
</svg> 